<?xml version="1.0" encoding="utf-8"?>
<!-- Generator: Adobe Illustrator 16.0.0, SVG Export Plug-In . SVG Version: 6.00 Build 0)  -->
<!DOCTYPE svg PUBLIC "-//W3C//DTD SVG 1.1//EN" "http://www.w3.org/Graphics/SVG/1.1/DTD/svg11.dtd">
<svg version="1.1" id="Layer_1" xmlns="http://www.w3.org/2000/svg" xmlns:xlink="http://www.w3.org/1999/xlink" x="0px" y="0px"
	 width="35px" height="35px" viewBox="0 0 35 35" enable-background="new 0 0 35 35" xml:space="preserve">
<g>
	<path fill="#AAB0B3" d="M17.5,2C26.047,2,33,8.953,33,17.5S26.047,33,17.5,33S2,26.047,2,17.5S8.953,2,17.5,2 M17.5,0
		C7.835,0,0,7.835,0,17.5S7.835,35,17.5,35C27.166,35,35,27.165,35,17.5S27.166,0,17.5,0L17.5,0z"/>
</g>
<polygon fill="#AAB0B3" points="26.561,10.561 24.439,8.439 17.5,15.379 10.561,8.439 8.439,10.561 15.379,17.5 8.439,24.439 
	10.561,26.561 17.5,19.621 24.439,26.561 26.561,24.439 19.621,17.5 "/>
</svg>
